<svg width="32" height="32" viewBox="0 0 32 32" fill="none" xmlns="http://www.w3.org/2000/svg">
<path d="M16.1395 13.7544V32L28 24.9825V6.73684L16.1395 13.7544Z" fill="#C5C5C5"/>
<path d="M16.1395 32V13.7544L4 6.73684V24.9825L16.1395 32Z" fill="#D6D6D6"/>
<path d="M15.1628 6.17544V8L18.093 6.31579V4.35088L15.1628 6.17544Z" fill="#C04077"/>
<path d="M15.1628 8V6.17544L13.6279 5.19298V7.15789L15.1628 8Z" fill="#D85790"/>
<path d="M15.1628 6.17544L18.093 4.35088L16.6977 3.50877L13.6279 5.19298L15.1628 6.17544Z" fill="#E76BA3"/>
<path fill-rule="evenodd" clip-rule="evenodd" d="M16.1395 13.7544L28 6.73684L16.1395 0L4 6.73684L16.1395 13.7544ZM18.093 6.31579L15.1628 8L13.6279 7.15789V5.19298L16.6977 3.50877L18.093 4.35088V6.31579Z" fill="#DFDFDF"/>
</svg>
